{"asset":{"version":"2.0","generator":"cFS-investigation/gltf-gen"},"scene":0,"scenes":[{"name":"Spacecraft","nodes":[19]}],"nodes":[{"name":"Bus","mesh":0,"translation":[0.0,0.0,0.0],"scale":[0.8,0.8,1.0]},{"name":"Antenna","children":[2],"translation":[0.0,0.45,-0.3],"rotation":[0.0,0.0,0.0,1.0]},{"name":"AntennaDish","mesh":0,"translation":[0.0,0.25,0.0],"scale":[0.5,0.06,0.5]},{"name":"Indicator","children":[4],"translation":[0.0,0.0,0.55],"rotation":[0.0,0.0,0.0,1.0]},{"name":"IndicatorLamp","mesh":2,"translation":[0.0,0.0,0.0],"scale":[0.12,0.12,0.12]},{"name":"ArrayRoot.L","children":[6],"translation":[0.0,0.0,0.0],"rotation":[0.0,0.0,0.0,1.0]},{"name":"Yoke.L","children":[7,8],"translation":[-0.45,0.0,0.0],"rotation":[0.0,0.0,0.0,1.0]},{"name":"YokeArm.L","mesh":0,"translation":[-0.15,0.0,0.0],"scale":[0.3,0.08,0.08]},{"name":"Panel.L.1","children":[9,10],"translation":[-0.3,0.0,0.0],"rotation":[0.0,-0.9659258,0.0,0.25881907]},{"name":"PanelGeo.L.1","mesh":1,"translation":[-0.5,0.0,0.0],"scale":[1.0,0.02,0.7]},{"name":"Panel.L.2","children":[11],"translation":[-1.0,0.0,0.0],"rotation":[0.0,0.9961947,0.0,0.087155804]},{"name":"PanelGeo.L.2","mesh":1,"translation":[-0.5,0.0,0.0],"scale":[1.0,0.02,0.7]},{"name":"ArrayRoot.R","children":[13],"translation":[0.0,0.0,0.0],"rotation":[0.0,1.0,0.0,-4.371139e-8]},{"name":"Yoke.R","children":[14,15],"translation":[-0.45,0.0,0.0],"rotation":[0.0,0.0,0.0,1.0]},{"name":"YokeArm.R","mesh":0,"translation":[-0.15,0.0,0.0],"scale":[0.3,0.08,0.08]},{"name":"Panel.R.1","children":[16,17],"translation":[-0.3,0.0,0.0],"rotation":[0.0,-0.9659258,0.0,0.25881907]},{"name":"PanelGeo.R.1","mesh":1,"translation":[-0.5,0.0,0.0],"scale":[1.0,0.02,0.7]},{"name":"Panel.R.2","children":[18],"translation":[-1.0,0.0,0.0],"rotation":[0.0,0.9961947,0.0,0.087155804]},{"name":"PanelGeo.R.2","mesh":1,"translation":[-0.5,0.0,0.0],"scale":[1.0,0.02,0.7]},{"name":"SpacecraftRoot","children":[0,1,3,5,12],"translation":[0.0,0.0,0.0],"rotation":[0.0,0.0,0.0,1.0]}],"meshes":[{"name":"BusMesh","primitives":[{"attributes":{"POSITION":0,"NORMAL":1},"indices":2,"material":0}]},{"name":"PanelMesh","primitives":[{"attributes":{"POSITION":0,"NORMAL":1},"indices":2,"material":1}]},{"name":"IndicatorMesh","primitives":[{"attributes":{"POSITION":0,"NORMAL":1},"indices":2,"material":2}]}],"materials":[{"name":"Bus","pbrMetallicRoughness":{"baseColorFactor":[0.72,0.73,0.75,1],"metallicFactor":0.6,"roughnessFactor":0.45}},{"name":"Panel","pbrMetallicRoughness":{"baseColorFactor":[0.08,0.13,0.35,1],"metallicFactor":0.3,"roughnessFactor":0.35}},{"name":"Indicator","pbrMetallicRoughness":{"baseColorFactor":[0.9,0.15,0.1,1],"metallicFactor":0,"roughnessFactor":0.6},"emissiveFactor":[1,0.2,0.1]}],"animations":[{"name":"Deploy","samplers":[{"input":3,"output":4,"interpolation":"LINEAR"},{"input":5,"output":6,"interpolation":"LINEAR"}],"channels":[{"sampler":0,"target":{"node":8,"path":"rotation"}},{"sampler":1,"target":{"node":10,"path":"rotation"}},{"sampler":0,"target":{"node":15,"path":"rotation"}},{"sampler":1,"target":{"node":17,"path":"rotation"}}]},{"name":"ModeSafe","samplers":[{"input":7,"output":8,"interpolation":"LINEAR"},{"input":7,"output":9,"interpolation":"LINEAR"}],"channels":[{"sampler":0,"target":{"node":1,"path":"rotation"}},{"sampler":1,"target":{"node":3,"path":"scale"}}]},{"name":"ModeNominal","samplers":[{"input":7,"output":10,"interpolation":"LINEAR"},{"input":7,"output":11,"interpolation":"LINEAR"}],"channels":[{"sampler":0,"target":{"node":1,"path":"rotation"}},{"sampler":1,"target":{"node":3,"path":"scale"}}]},{"name":"ModeDeploying","samplers":[{"input":7,"output":12,"interpolation":"LINEAR"},{"input":7,"output":13,"interpolation":"LINEAR"}],"channels":[{"sampler":0,"target":{"node":1,"path":"rotation"}},{"sampler":1,"target":{"node":3,"path":"scale"}}]},{"name":"ModeDeployed","samplers":[{"input":7,"output":14,"interpolation":"LINEAR"},{"input":7,"output":15,"interpolation":"LINEAR"}],"channels":[{"sampler":0,"target":{"node":1,"path":"rotation"}},{"sampler":1,"target":{"node":3,"path":"scale"}}]}],"accessors":[{"bufferView":0,"componentType":5126,"count":24,"type":"VEC3","min":[-0.5,-0.5,-0.5],"max":[0.5,0.5,0.5]},{"bufferView":1,"componentType":5126,"count":24,"type":"VEC3","min":[-1.0,-1.0,-1.0],"max":[1.0,1.0,1.0]},{"bufferView":2,"componentType":5123,"count":36,"type":"SCALAR"},{"bufferView":3,"componentType":5126,"count":5,"type":"SCALAR","min":[0.0],"max":[1.2]},{"bufferView":4,"componentType":5126,"count":5,"type":"VEC4","min":[0.0,-0.9659258,0.0,0.25881907],"max":[0.0,0.0,0.0,1.0]},{"bufferView":5,"componentType":5126,"count":5,"type":"SCALAR","min":[0.8],"max":[2.0]},{"bufferView":6,"componentType":5126,"count":5,"type":"VEC4","min":[0.0,0.0,0.0,0.087155804],"max":[0.0,0.9961947,0.0,1.0]},{"bufferView":7,"componentType":5126,"count":2,"type":"SCALAR","min":[0.0],"max":[1.0]},{"bufferView":8,"componentType":5126,"count":2,"type":"VEC4","min":[-0.57357645,0.0,0.0,0.81915206],"max":[-0.57357645,0.0,0.0,0.81915206]},{"bufferView":9,"componentType":5126,"count":2,"type":"VEC3","min":[1.8,1.8,1.8],"max":[1.8,1.8,1.8]},{"bufferView":10,"componentType":5126,"count":2,"type":"VEC4","min":[0.0,0.0,0.0,1.0],"max":[0.0,0.0,0.0,1.0]},{"bufferView":11,"componentType":5126,"count":2,"type":"VEC3","min":[1.0,1.0,1.0],"max":[1.0,1.0,1.0]},{"bufferView":12,"componentType":5126,"count":2,"type":"VEC4","min":[-0.17364818,0.0,0.0,0.9848077],"max":[-0.17364818,0.0,0.0,0.9848077]},{"bufferView":13,"componentType":5126,"count":2,"type":"VEC3","min":[1.4,1.4,1.4],"max":[1.4,1.4,1.4]},{"bufferView":14,"componentType":5126,"count":2,"type":"VEC4","min":[0.1305262,0.0,0.0,0.9914449],"max":[0.1305262,0.0,0.0,0.9914449]},{"bufferView":15,"componentType":5126,"count":2,"type":"VEC3","min":[1.0,1.0,1.0],"max":[1.0,1.0,1.0]}],"bufferViews":[{"buffer":0,"byteOffset":0,"byteLength":288,"target":34962},{"buffer":0,"byteOffset":288,"byteLength":288,"target":34962},{"buffer":0,"byteOffset":576,"byteLength":72,"target":34963},{"buffer":0,"byteOffset":648,"byteLength":20},{"buffer":0,"byteOffset":668,"byteLength":80},{"buffer":0,"byteOffset":748,"byteLength":20},{"buffer":0,"byteOffset":768,"byteLength":80},{"buffer":0,"byteOffset":848,"byteLength":8},{"buffer":0,"byteOffset":856,"byteLength":32},{"buffer":0,"byteOffset":888,"byteLength":24},{"buffer":0,"byteOffset":912,"byteLength":32},{"buffer":0,"byteOffset":944,"byteLength":24},{"buffer":0,"byteOffset":968,"byteLength":32},{"buffer":0,"byteOffset":1000,"byteLength":24},{"buffer":0,"byteOffset":1024,"byteLength":32},{"buffer":0,"byteOffset":1056,"byteLength":24}],"buffers":[{"byteLength":1080,"uri":"data:application/octet-stream;base64,"}]}